<?xml version="1.0" standalone="no"?>
<!DOCTYPE svg PUBLIC "-//W3C//DTD SVG 20010904//EN" "http://www.w3.org/TR/2001/REC-SVG-20010904/DTD/svg10.dtd">
<svg version="1.0" xmlns="http://www.w3.org/2000/svg" width="200.000000pt" height="64.000000pt" viewBox="0 0 200.000000 64.000000" preserveAspectRatio="xMidYMid meet">
<metadata>
    Created by Brian Lucero on Feb. 14, 2023 | Contact Email: 13rianlucero@csu.fullerton.edu | Visit my Github: https://github.com/13rianlucero
</metadata>
<g transform="translate(0.000000,64.000000) scale(0.100000,-0.100000)" fill="#191970" stroke="none">
<text x="200" y="200" font-family="Courier, Monospace" font-size="32" fill="#FFFFFF">your focus determines your reality</text>
<path d="M30 314 l0 -296 31 6 c17 3 58 6 90 6 52 0 59 2 59 20 0 18 -7 20
-70 20 l-70 0 0 250 0 250 70 0 c63 0 70 2 70 20 0 19 -7 20 -90 20 l-90 0 0
-296z"/>
<path d="M1760 590 c0 -18 7 -20 85 -20 l85 0 0 -250 0 -250 -85 0 c-78 0 -85
-2 -85 -20 0 -18 7 -20 74 -20 40 0 88 -3 105 -6 l31 -6 0 296 0 296 -105 0
c-98 0 -105 -1 -105 -20z"/>
<path d="M185 334 l0 -106 47 4 c26 3 54 11 63 18 17 14 20 65 5 75 -6 4 -8
16 -4 28 19 57 -5 87 -70 87 l-41 0 0 -106z m85 48 c0 -10 -22 -32 -32 -32 -4
0 -8 14 -8 30 0 28 2 30 20 20 11 -6 20 -14 20 -18z m0 -87 c0 -8 -9 -19 -20
-25 -18 -10 -20 -8 -20 25 0 33 2 35 20 25 11 -6 20 -17 20 -25z"/>
<path d="M335 335 c0 -102 1 -105 23 -105 20 0 22 5 22 45 0 25 4 45 9 45 4 0
14 -20 21 -45 11 -38 17 -45 37 -45 21 0 23 3 17 23 -3 12 -13 34 -20 48 -11
23 -11 29 1 39 8 7 15 25 15 41 0 36 -32 59 -85 59 l-40 0 0 -105z m69 69 c29
-11 14 -54 -20 -54 -2 0 -4 14 -4 30 0 32 1 33 24 24z"/>
<path d="M490 335 l0 -105 25 0 25 0 0 105 0 105 -25 0 -25 0 0 -105z"/>
<path d="M595 418 c-3 -13 -13 -60 -24 -105 l-18 -83 23 0 c19 0 24 5 24 25 0
20 5 25 25 25 20 0 25 -5 25 -25 0 -20 5 -25 25 -25 27 0 29 8 16 60 -5 19
-15 61 -21 93 -11 54 -13 57 -41 57 -21 0 -30 -6 -34 -22z m39 -70 c6 -31 4
-38 -9 -38 -17 0 -18 4 -9 49 8 38 9 37 18 -11z"/>
<path d="M720 335 c0 -98 1 -105 20 -105 18 0 20 7 20 63 l1 62 29 -62 c20
-44 34 -63 47 -63 16 0 18 10 18 105 0 93 -2 105 -17 105 -15 0 -18 -10 -19
-57 l-1 -58 -25 58 c-21 46 -31 57 -50 57 -23 0 -23 -2 -23 -105z m37 33 c-3
-7 -5 -2 -5 12 0 14 2 19 5 13 2 -7 2 -19 0 -25z"/>
<path d="M960 335 l0 -105 55 0 c49 0 55 2 55 20 0 18 -4 20 -35 14 l-35 -6 0
91 c0 84 -1 91 -20 91 -19 0 -20 -7 -20 -105z"/>
<path d="M1090 351 c0 -100 10 -121 60 -121 46 0 60 31 60 127 0 76 -2 83 -20
83 -17 0 -19 -8 -22 -87 -2 -70 -6 -88 -18 -88 -12 0 -16 18 -18 88 -3 79 -5
87 -22 87 -18 0 -20 -7 -20 -89z"/>
<path d="M1256 418 c-10 -14 -16 -44 -16 -83 0 -73 18 -105 60 -105 18 0 34 8
44 22 22 32 20 58 -4 58 -13 0 -20 -7 -20 -19 0 -25 -20 -38 -31 -20 -13 20
-6 132 8 136 7 3 15 -7 19 -21 4 -17 13 -26 26 -26 17 0 19 4 13 27 -10 40
-24 53 -56 53 -17 0 -34 -8 -43 -22z"/>
<path d="M1390 335 l0 -105 55 0 c49 0 55 2 55 20 0 18 -4 20 -35 14 -34 -6
-35 -5 -35 25 0 26 4 31 23 31 16 0 23 6 24 20 1 15 -4 20 -23 20 -19 0 -24 5
-24 25 0 22 3 24 29 19 23 -5 29 -2 34 15 5 19 1 21 -49 21 l-54 0 0 -105z"/>
<path d="M1520 335 c0 -98 1 -105 20 -105 17 0 20 7 20 45 0 25 4 45 9 45 4 0
16 -20 25 -45 12 -30 24 -45 35 -45 28 0 30 9 10 50 -17 35 -17 41 -4 67 20
37 19 49 -5 73 -14 14 -33 20 -65 20 l-45 0 0 -105z m75 59 c12 -12 13 -19 4
-30 -20 -24 -39 -16 -39 16 0 34 11 38 35 14z"/>
<path d="M1689 424 c-18 -22 -23 -133 -7 -164 18 -34 67 -39 94 -9 27 30 27
138 0 168 -23 25 -68 27 -87 5z m63 -50 c16 -56 -11 -138 -33 -103 -10 16 -12
100 -3 124 9 23 27 13 36 -21z"/>
</g>
</svg>
